<?xml version="1.0" standalone="no"?>
<!DOCTYPE svg PUBLIC "-//W3C//DTD SVG 20010904//EN"
 "http://www.w3.org/TR/2001/REC-SVG-20010904/DTD/svg10.dtd">
<svg version="1.0" xmlns="http://www.w3.org/2000/svg"
 width="700.000000pt" height="700.000000pt" viewBox="0 0 700.000000 700.000000"
 preserveAspectRatio="xMidYMid meet">
<metadata>
Created by potrace 1.14, written by Peter Selinger 2001-2017
</metadata>
<g transform="translate(0.000000,700.000000) scale(0.100000,-0.100000)"
fill="#000000" stroke="none">
<path d="M3425 6993 c-52 -13 -114 -50 -160 -98 -116 -118 -121 -316 -11 -439
17 -20 26 -41 27 -65 1 -134 0 -494 -3 -496 -2 -1 -35 -6 -75 -9 -276 -25
-694 -167 -920 -312 -29 -19 -56 -34 -58 -34 -6 0 -217 -150 -225 -159 -33
-40 -32 -40 -226 153 -174 175 -187 190 -190 229 -13 130 -81 227 -199 282
-29 14 -63 19 -125 20 -72 0 -94 -4 -140 -26 -72 -34 -126 -90 -161 -164 -56
-122 -23 -287 76 -372 65 -57 117 -78 207 -87 33 -3 58 -24 223 -189 l186
-186 -59 -78 c-216 -284 -376 -630 -446 -968 -21 -102 -38 -217 -39 -262 0
-14 6 -14 -316 -14 l-214 0 -39 31 c-149 120 -357 95 -472 -56 -100 -130 -80
-327 43 -435 69 -61 122 -81 216 -82 89 -1 145 18 216 74 l39 31 256 0 c141
-1 260 -4 264 -9 4 -4 10 -36 13 -69 10 -100 55 -311 94 -429 89 -274 212
-511 385 -738 l59 -77 -187 -188 c-174 -173 -190 -187 -227 -189 -97 -7 -186
-55 -243 -132 -45 -61 -62 -121 -60 -206 2 -122 67 -223 181 -283 43 -23 62
-26 140 -27 76 0 98 4 140 25 104 51 181 164 189 276 3 40 11 51 189 228 l186
187 107 -80 c170 -126 349 -226 569 -316 57 -24 180 -63 270 -85 100 -25 97
-24 145 -33 71 -14 96 -18 155 -23 33 -4 64 -10 68 -14 5 -4 8 -123 8 -264 l1
-256 -31 -39 c-56 -70 -75 -127 -74 -216 1 -94 21 -147 82 -216 82 -94 230
-131 350 -89 215 77 288 355 137 524 -21 23 -26 40 -26 80 -3 307 0 470 7 476
4 4 37 10 73 14 376 35 821 218 1162 478 l79 59 186 -186 c179 -179 186 -188
190 -231 10 -117 84 -223 189 -274 73 -36 198 -35 274 1 71 34 121 84 156 156
64 129 28 301 -78 385 -62 48 -99 66 -149 74 -24 3 -54 7 -67 9 -13 2 -98 80
-208 189 l-185 186 77 103 c168 225 282 445 367 712 49 153 99 399 100 493 0
13 -1 13 282 13 265 0 249 2 281 -27 16 -14 54 -38 84 -52 75 -36 191 -37 265
-1 117 55 192 172 192 298 0 185 -141 326 -326 325 -85 0 -161 -28 -215 -79
l-29 -27 -258 0 c-142 0 -262 3 -267 6 -5 3 -12 37 -16 76 -18 202 -112 520
-216 734 -89 183 -141 269 -262 429 l-59 77 186 187 c179 178 188 186 230 189
115 9 224 84 275 189 36 74 35 198 -1 275 -33 69 -88 125 -159 159 -75 35
-201 37 -271 3 -106 -52 -187 -165 -191 -269 l-3 -48 -187 -188 -188 -189 -67
52 c-288 227 -702 412 -1040 466 -21 3 -40 7 -44 9 -3 2 -39 7 -80 10 -40 4
-78 11 -82 15 -5 4 -8 125 -8 268 l0 260 27 29 c15 15 38 53 53 83 21 45 25
69 25 135 -1 69 -5 88 -32 141 -56 110 -157 175 -277 179 -38 1 -79 0 -90 -2z
m-142 -2370 l2 -498 -35 -16 -35 -16 -352 353 c-194 194 -353 356 -353 359 0
11 175 119 269 165 143 71 321 130 440 146 25 3 48 8 50 10 2 2 6 2 8 0 3 -2
5 -228 6 -503z m697 445 c41 -11 79 -25 85 -30 5 -4 15 -8 22 -8 41 0 403
-202 403 -226 0 -3 -159 -164 -353 -359 l-353 -353 -32 14 c-23 9 -32 20 -32
36 -4 177 0 970 4 976 6 10 139 -16 256 -50z m-1429 -927 c213 -214 349 -357
349 -368 0 -11 -6 -27 -13 -37 -12 -16 -47 -18 -510 -19 l-497 -2 0 28 c0 93
90 371 168 517 47 88 138 230 148 230 3 0 163 -157 355 -349z m2307 277 c89
-132 163 -284 208 -428 17 -52 63 -263 59 -268 -2 -2 -227 -3 -501 -4 -467 0
-499 1 -511 18 -7 10 -13 26 -13 37 0 11 138 156 349 368 193 192 352 349 355
349 3 0 27 -33 54 -72z m-1254 -727 c125 -71 151 -232 54 -340 -39 -43 -80
-61 -146 -66 -157 -10 -267 139 -215 291 18 53 74 109 127 128 56 19 132 14
180 -13z m-712 -440 l16 -34 -353 -354 c-195 -194 -356 -353 -359 -353 -13 0
-125 181 -170 274 -67 137 -124 312 -142 436 -3 19 -7 40 -9 47 -6 17 37 18
555 18 l445 0 17 -34z m2209 29 l26 0 -17 -87 c-34 -171 -68 -272 -145 -426
-31 -61 -62 -119 -70 -128 -8 -8 -15 -19 -15 -22 0 -9 -70 -107 -77 -107 -2 0
-163 159 -357 353 l-354 353 13 32 c13 28 18 31 67 34 40 2 727 1 929 -2z
m-1825 -401 c3 -5 6 -233 6 -507 0 -411 -2 -497 -14 -495 -173 22 -388 93
-548 181 -74 40 -210 130 -210 138 0 3 159 164 353 358 339 340 353 353 380
344 15 -6 30 -14 33 -19z m1214 -683 c0 -13 -188 -129 -276 -172 -115 -55
-270 -107 -394 -132 -52 -11 -96 -18 -98 -17 -2 2 -4 667 -3 931 l1 81 33 10
32 9 353 -352 c193 -194 352 -355 352 -358z"/>
</g>
</svg>
